<?xml version="1.0" standalone="no"?>
<!DOCTYPE svg PUBLIC "-//W3C//DTD SVG 20010904//EN"
 "http://www.w3.org/TR/2001/REC-SVG-20010904/DTD/svg10.dtd">
<svg version="1.0" xmlns="http://www.w3.org/2000/svg"
 width="2361.000000pt" height="1237.000000pt" viewBox="0 0 2361.000000 1237.000000"
 preserveAspectRatio="xMidYMid meet">

<g transform="translate(0.000000,1237.000000) scale(0.100000,-0.100000)"
fill="#000000" stroke="none">
<path d="M4275 9023 c-84 -12 -270 -59 -384 -98 -323 -111 -630 -270 -876
-454 -111 -84 -316 -283 -387 -376 -127 -168 -199 -330 -200 -451 0 -150 79
-214 266 -214 102 0 179 18 316 74 47 19 88 32 92 29 14 -8 -20 -60 -79 -120
-43 -44 -99 -83 -218 -152 -164 -94 -530 -344 -666 -454 -154 -126 -240 -254
-247 -372 -4 -54 -1 -64 22 -92 74 -88 280 -82 452 13 133 74 300 203 421 326
120 122 339 391 458 563 57 82 114 162 127 176 13 15 75 63 138 107 225 156
258 169 246 94 -18 -108 -18 -139 -2 -165 53 -80 226 -77 391 5 46 23 101 71
240 209 173 171 235 218 287 219 27 0 29 -14 13 -77 -40 -150 -36 -268 10
-329 34 -44 68 -61 152 -75 58 -9 79 -9 133 5 156 40 273 154 437 427 70 116
93 181 109 295 10 77 10 78 99 69 146 -13 159 -66 61 -260 -30 -60 -114 -200
-186 -309 -71 -109 -130 -202 -130 -207 0 -8 71 -25 178 -41 52 -7 80 -8 97 0
13 6 79 96 159 216 75 113 145 210 156 216 17 9 22 6 37 -27 25 -52 72 -75
143 -70 30 2 62 6 70 8 10 3 14 -2 12 -16 -7 -59 -3 -185 7 -222 7 -26 25 -53
48 -73 35 -31 39 -32 112 -28 116 5 225 62 452 235 53 40 102 73 108 73 14 0
8 -27 -17 -75 -57 -113 -378 -522 -760 -969 -85 -98 -158 -190 -163 -203 -13
-36 -11 -100 5 -131 30 -57 117 -72 194 -33 93 47 236 212 444 511 79 114 340
548 451 750 138 252 242 399 437 621 65 74 80 96 80 123 0 37 -25 66 -57 66
-34 0 -112 -37 -177 -84 -62 -44 -163 -146 -335 -334 -141 -155 -321 -272
-419 -272 -57 0 -94 37 -90 89 3 35 5 37 133 100 124 61 135 69 240 175 115
115 155 176 155 235 0 102 -83 112 -255 32 -126 -59 -192 -106 -315 -226 -137
-134 -152 -143 -179 -116 -44 44 -40 184 8 275 46 86 39 126 -21 126 -44 0
-86 -26 -167 -104 -83 -80 -69 -82 -134 19 -49 76 -63 80 -272 81 -99 1 -190
2 -202 3 -18 1 -32 20 -69 94 -63 127 -125 217 -198 289 -147 146 -283 209
-456 212 -84 1 -100 -2 -139 -24 -96 -54 -117 -168 -54 -303 59 -124 166 -215
331 -278 45 -17 85 -36 89 -41 9 -15 -193 -211 -246 -237 -23 -12 -55 -21 -69
-19 -29 3 -29 2 -15 93 5 28 6 74 3 104 -5 45 -11 58 -42 87 -45 41 -91 50
-178 35 -146 -26 -304 -134 -601 -407 -93 -86 -200 -156 -215 -141 -12 12 162
256 307 429 l61 72 -24 19 c-31 26 -97 19 -179 -20 -65 -30 -165 -118 -415
-368 -206 -204 -437 -345 -522 -318 -16 6 -34 23 -45 45 -24 48 -13 88 57 224
79 151 140 236 260 362 228 237 437 369 693 439 101 27 214 35 362 23 l63 -5
79 138 c43 75 79 141 79 146 0 19 -89 26 -175 14z m800 -282 c74 -37 146 -111
211 -219 81 -135 83 -169 7 -157 -66 10 -207 61 -280 101 -107 60 -193 159
-193 223 0 31 20 68 44 80 39 20 141 6 211 -28z m287 -517 c27 -14 30 -19 25
-52 -3 -21 -23 -84 -46 -142 -47 -120 -134 -246 -201 -291 -48 -32 -106 -47
-129 -32 -64 40 49 242 205 364 35 28 64 57 64 65 0 7 -8 29 -17 49 -15 31
-15 37 -3 45 23 15 68 12 102 -6z m1508 -70 c0 -50 -150 -194 -202 -194 -51 0
24 114 114 175 57 38 88 45 88 19z m-2331 -3 c28 -18 4 -60 -50 -89 -28 -15
-65 -38 -81 -51 -29 -24 -30 -25 -23 -93 l7 -69 -92 -94 c-101 -103 -135 -124
-170 -105 -70 38 56 250 245 411 66 56 129 99 145 99 3 0 11 -4 19 -9z m-1839
-1159 c0 -13 -104 -177 -162 -254 -60 -82 -183 -199 -235 -223 -33 -16 -40
-16 -63 -4 -73 42 -1 156 215 337 139 117 245 179 245 144z"/>
<path d="M7685 8606 c-91 -41 -132 -152 -80 -214 44 -52 116 -48 172 10 69 72
70 168 2 204 -34 17 -55 17 -94 0z"/>
<path d="M6235 5499 c-372 -37 -668 -286 -767 -644 -29 -108 -32 -365 -5 -465
64 -231 213 -394 416 -454 71 -21 274 -22 351 -1 264 70 461 323 421 540 -13
68 -48 148 -62 139 -6 -3 -7 -14 -4 -23 11 -35 -15 -166 -45 -227 -60 -123
-203 -197 -380 -196 -214 0 -381 131 -435 339 -70 270 99 624 360 754 88 43
158 59 265 59 167 0 309 -65 432 -200 76 -82 128 -175 164 -295 23 -77 27
-109 28 -225 0 -100 -4 -152 -17 -200 -76 -282 -240 -482 -517 -629 -301 -159
-680 -208 -1031 -131 -383 83 -700 316 -863 635 -20 39 -36 73 -36 76 0 3 41
9 91 12 336 24 567 268 545 577 -9 130 -35 201 -107 296 -73 95 -200 167 -357
202 -66 14 -141 17 -517 17 l-440 0 -3 -862 -2 -863 140 0 140 0 0 315 0 315
111 0 110 0 21 -52 c37 -89 111 -229 163 -308 62 -92 225 -263 316 -330 143
-107 339 -203 514 -253 198 -57 242 -62 510 -62 223 0 261 3 354 23 481 106
856 371 1027 727 85 179 120 349 111 558 -5 147 -32 257 -88 370 -165 329
-512 506 -914 466z m-1612 -231 c84 -40 157 -114 198 -201 31 -67 34 -79 34
-172 0 -88 -3 -107 -27 -157 -35 -76 -95 -138 -170 -179 l-63 -34 -297 -3
-298 -3 0 391 0 391 283 -3 282 -3 58 -27z"/>
<path d="M11274 5466 c-254 -42 -429 -159 -490 -328 -61 -168 -24 -351 92
-463 81 -79 155 -109 442 -182 280 -71 380 -110 433 -171 47 -53 62 -98 56
-160 -15 -141 -165 -267 -352 -293 -156 -21 -332 13 -528 104 -48 22 -89 38
-91 36 -2 -2 -15 -38 -29 -79 l-26 -75 55 -28 c145 -74 359 -121 554 -121 208
-1 351 37 491 130 80 53 129 110 172 201 31 65 32 73 32 193 0 117 -2 128 -27
177 -38 71 -82 120 -151 164 -92 59 -188 94 -450 163 -317 83 -365 104 -404
180 -54 105 38 287 180 355 64 31 154 51 227 51 75 0 222 -22 295 -45 28 -8
53 -15 58 -15 4 0 7 38 7 85 l0 84 -37 10 c-131 35 -382 48 -509 27z"/>
<path d="M12949 5470 c-170 -21 -308 -79 -401 -168 -113 -108 -159 -241 -137
-397 20 -142 98 -244 241 -314 60 -29 141 -55 288 -91 309 -76 376 -101 445
-162 178 -155 17 -426 -279 -469 -145 -21 -374 24 -538 107 -37 19 -72 34 -77
34 -6 0 -20 -30 -31 -67 -12 -38 -23 -73 -26 -79 -8 -19 144 -83 287 -119 321
-82 635 -42 829 104 112 85 168 177 190 315 26 166 -40 315 -182 407 -92 59
-187 94 -439 160 -267 70 -327 90 -370 126 -69 58 -79 149 -28 251 65 131 214
212 389 212 75 0 222 -22 295 -45 28 -8 53 -15 58 -15 4 0 7 38 7 85 l0 84
-37 10 c-117 31 -363 47 -484 31z"/>
<path d="M15589 5464 c-351 -63 -617 -313 -699 -657 -24 -100 -27 -317 -6
-417 42 -197 154 -378 307 -495 281 -217 685 -253 1005 -92 107 55 138 77 227
165 163 160 247 372 247 623 0 257 -80 451 -259 629 -110 108 -196 162 -337
209 -154 52 -326 64 -485 35z m316 -184 c207 -53 385 -228 460 -453 149 -447
-160 -937 -592 -937 -100 0 -164 15 -262 62 -67 32 -100 56 -160 117 -89 89
-131 157 -175 278 -30 84 -31 95 -31 243 0 148 1 159 31 243 44 123 87 190
179 282 158 159 349 216 550 165z"/>
<path d="M1920 4596 l0 -866 135 0 135 0 0 250 0 250 295 0 c231 0 313 3 372
16 346 71 538 374 468 741 -42 220 -197 383 -422 445 -73 20 -107 22 -530 26
l-453 4 0 -866z m880 673 c156 -73 250 -236 250 -433 -1 -177 -88 -333 -230
-410 -66 -36 -151 -46 -407 -46 l-223 0 0 461 0 460 278 -3 c274 -3 278 -3
332 -29z"/>
<path d="M7546 5453 c-3 -3 -6 -393 -6 -865 l0 -858 130 0 130 0 0 405 0 405
460 0 460 0 0 80 0 80 -457 2 -458 3 0 295 0 295 523 3 522 2 0 80 0 80 -649
0 c-356 0 -651 -3 -655 -7z"/>
<path d="M9088 5453 c-17 -4 -18 -54 -18 -864 l0 -859 685 0 686 0 -3 78 -3
77 -552 3 -553 2 0 325 0 325 460 0 460 0 0 80 0 80 -460 0 -460 0 2 298 3
297 553 3 552 2 0 74 c0 50 -4 75 -13 79 -16 6 -1317 7 -1339 0z"/>
<path d="M14170 4593 l0 -863 135 0 135 0 0 859 0 859 -29 7 c-16 3 -77 5
-135 4 l-106 -3 0 -863z"/>
<path d="M16910 4594 l0 -864 70 0 70 0 0 641 c0 378 4 639 9 637 8 -3 695
-802 985 -1145 l111 -132 58 0 57 -1 0 865 0 866 -67 -3 -68 -3 -3 -642 c-1
-354 -6 -643 -11 -643 -4 0 -130 143 -278 318 -149 174 -382 447 -518 607
-136 159 -260 305 -275 324 -25 30 -34 34 -84 36 l-56 3 0 -864z"/>
<path d="M19220 5453 c-8 -2 -30 -38 -47 -81 -18 -42 -77 -185 -133 -317 -137
-323 -247 -584 -310 -735 -60 -143 -143 -340 -205 -485 l-42 -100 135 -3 c74
-1 139 1 143 5 4 4 41 90 84 191 l77 182 491 0 492 0 75 -190 75 -190 82 0 83
0 -19 48 c-11 26 -168 414 -350 862 l-329 815 -144 1 c-79 0 -150 -1 -158 -3z
m259 -290 c7 -14 79 -193 161 -397 82 -204 155 -387 164 -407 8 -20 12 -39 9
-43 -9 -9 -776 -7 -791 2 -9 6 21 88 119 323 158 377 208 497 220 527 7 19 16
22 57 22 43 0 50 -3 61 -27z"/>
<path d="M20553 5454 c-10 -5 -13 -187 -13 -865 l0 -859 23 -5 c12 -3 276 -4
587 -3 l565 3 3 83 3 82 -451 0 -450 0 0 779 0 779 -32 5 c-42 7 -219 7 -235
1z"/>
</g>
</svg>
